Coordinates
version=1
nRows=14
nColumns=36
inDegrees=yes

Units are S.I. units (second, meters, Newtons, ...)
If the header above contains a line with 'inDegrees', this indicates whether rotational values are in degrees (yes) or radians (no).

endheader
time	pelvis_tilt	pelvis_list	pelvis_rotation	pelvis_tx	pelvis_ty	pelvis_tz	hip_flexion_r	hip_adduction_r	hip_rotation_r	knee_angle_r	knee_angle_r_beta	ankle_angle_r	subtalar_angle_r	mtp_angle_r	hip_flexion_l	hip_adduction_l	hip_rotation_l	knee_angle_l	knee_angle_l_beta	ankle_angle_l	subtalar_angle_l	mtp_angle_l	lumbar_extension	lumbar_bending	lumbar_rotation	arm_flex_r	arm_add_r	arm_rot_r	elbow_flex_r	pro_sup_r	arm_flex_l	arm_add_l	arm_rot_l	elbow_flex_l	pro_sup_l
      8.81666670	     18.88998102	      3.99555007	     19.18481331	      0.05517109	      0.96162634	     -0.06786143	     16.01668540	    -15.32555729	      1.95566864	      0.87850822	      0.01533286	    -26.00325414	    -22.92211367	     -7.49999987	    -19.54674094	      4.65652365	     39.62873676	     13.19621946	      0.23031748	     -3.52573155	    -34.62983833	     -7.49999987	    -30.30745782	     -5.67772947	     -6.88692880	     47.48880400	     11.80568751	     61.36827380	    139.93281611	    110.63013315	     65.65437346	     15.46808696	     78.42065024	    128.00281165	     68.12588909
      8.83333330	     19.11156969	      4.74831254	     19.09652793	      0.05537986	      0.96188443	     -0.06758289	     15.50603449	    -15.98629808	      1.46999348	      0.76891043	      0.01342002	    -27.64066611	    -24.03572146	     -7.49999987	    -19.07508787	      5.90688976	     39.57652141	     14.31103219	      0.24977463	     -4.08279011	    -34.64237333	     -7.49999987	    -31.00866066	     -6.19091756	     -6.77710575	     47.79368549	     11.62767463	     61.05923180	    139.72556690	    109.53798334	     65.97669669	     15.51518242	     78.79735129	    128.20177579	     68.01733908
      8.85000000	     18.95730583	      5.01856997	     18.93891007	      0.05675861	      0.95706801	     -0.06967684	     15.54719726	    -16.23006286	      1.57305172	      0.81901933	      0.01429458	    -26.90674826	    -23.00369621	     -7.49999987	    -19.03076011	      6.47172534	     39.62177550	     15.42816888	      0.26927234	     -2.35245233	    -34.63528948	     -7.49999987	    -30.94087890	     -6.42978798	     -6.54709524	     47.71262382	     11.66760575	     61.30923635	    139.62282780	    109.86262342	     65.96778393	     15.47920452	     78.99209893	    128.18278767	     68.05450208
      8.86666670	     18.99224779	      5.27896670	     18.68561866	      0.05095235	      0.95511852	     -0.07123402	     15.73690818	    -16.62652435	      1.19440845	      0.79225585	      0.01382747	    -26.50670887	    -21.94238682	     -7.49999987	    -18.22410785	      7.69270779	     39.59730751	     16.77439338	      0.29276839	     -2.06060886	    -34.64048064	     -7.49999987	    -31.47400270	     -6.34023136	     -6.61834991	     47.95869471	     12.04855400	     62.19972459	    139.55981761	    110.58747945	     66.22862802	     15.24431855	     79.08304310	    128.44357811	     67.01890177
      8.88333330	     19.31195431	      6.29195283	     18.70177738	      0.05113119	      0.95238281	     -0.06969840	     15.40322572	    -17.59520781	      1.00371988	      0.77432619	      0.01351454	    -26.04359476	    -22.09447804	     -7.49999987	    -17.37453319	      9.33076110	     39.44516848	     18.19244900	      0.31751813	     -2.54961794	    -34.67118850	     -7.49999987	    -32.53906843	     -7.06217207	     -7.07863949	     48.31124680	     12.45765059	     62.76721080	    139.21136046	    106.83408151	     66.78840563	     14.92724980	     79.14225353	    128.74073692	     66.39679297
      8.90000000	     19.31362499	      6.83977258	     18.83949997	      0.05234713	      0.94794502	     -0.07085138	     15.08318556	    -18.16294047	      0.80300274	      0.85359252	      0.01489800	    -26.54893578	    -23.70838106	     -7.49999987	    -16.28931366	     10.53656558	     39.09152863	     20.33840949	      0.35497221	     -2.70047410	    -34.68772290	     -7.49999987	    -33.09970150	     -7.38364495	     -6.87330974	     48.26541693	     12.38634519	     62.99339776	    139.38406012	    110.64737508	     66.83684273	     15.01796215	     79.29900585	    128.99870096	     67.15990921
      8.91666670	     19.68353279	      7.61645076	     18.77484760	      0.04852214	      0.94029148	     -0.07203359	     14.77613414	    -19.01061264	      0.10729853	      0.96814631	      0.01689734	    -28.06239757	    -25.28952353	     -7.49999987	    -14.65831208	     12.54201596	     38.08988008	     23.34509053	      0.40744869	     -3.36480172	    -34.70421180	     -7.49999987	    -34.36388010	     -7.66877906	     -6.65936638	     48.93470745	     12.50375621	     63.08657828	    139.35989604	    108.01426294	     67.50569365	     15.18003970	     79.15597316	    129.42952457	     67.00015541
      8.93333330	     19.73160061	      8.12462345	     18.66669654	      0.04945804	      0.93464458	     -0.07272437	     14.70449798	    -19.42587303	      0.33637802	      1.16953238	      0.02041219	    -28.17033676	    -26.12723164	     -7.49999987	    -13.14517834	     13.97208692	     36.68156115	     27.52427037	      0.48038914	     -2.11554575	    -34.71133083	     -7.49999987	    -34.83045330	     -7.99574072	     -6.19051389	     49.19871243	     12.49776764	     62.92450442	    139.34255867	    110.77171494	     67.82885995	     15.40447537	     79.09206346	    129.57157834	     66.07620421
      8.95000000	     19.90148604	      8.27441552	     18.31282060	      0.04712859	      0.93314061	     -0.07411572	     14.63370710	    -19.69379801	      0.77549074	      1.58309872	      0.02763029	    -28.71225071	    -26.26799325	     -7.49999987	    -10.90463795	     15.46241477	     34.97150567	     30.88029200	      0.53896277	     -2.53468340	    -34.71190438	     -7.49999987	    -35.58963477	     -7.87012390	     -5.60960015	     49.47272967	     12.43082011	     63.43809967	    139.50014383	    110.49407448	     67.97708657	     15.63510741	     79.20238949	    129.91810469	     66.53931704
      8.96666670	     20.79225832	      8.59040700	     17.13569932	      0.04703946	      0.93496954	     -0.07445789	     13.57950752	    -19.52761632	     -0.00102339	      1.59201510	      0.02778591	    -30.69921664	    -27.67518191	     -7.49999987	     -9.08089850	     16.54494516	     31.99056235	     32.81085393	      0.57265743	     -6.50489658	    -34.71553655	     -7.49999987	    -36.93219281	     -8.11856464	     -5.07018445	     49.84769032	     12.64118962	     64.27244254	    139.38164601	    110.07512882	     67.90904182	     15.25796264	     79.11334984	    130.03436084	     66.10330407
      8.98333330	     21.04531971	      8.76625599	     16.79038622	      0.04897237	      0.92683910	     -0.07613547	     12.98841437	    -19.48683485	      0.89805062	      1.60403020	      0.02799561	    -28.04649017	    -25.62870047	     -7.49999987	     -8.71979241	     17.05716916	     31.04352923	     35.19253038	      0.61422553	     -3.61628458	    -34.71704102	     -7.49999987	    -37.24840544	     -8.49733977	     -4.74400354	     49.40286665	     12.45049838	     64.78269769	    139.58031969	    110.02309443	     67.45904364	     15.26020752	     79.30451978	    129.74314660	     65.86208380
      9.00000000	     21.61054292	      8.64836080	     16.01795215	      0.04312997	      0.91776780	     -0.07840459	     12.71260444	    -19.44919775	      1.58742212	      1.77003147	      0.03089288	    -26.35631315	    -23.45650930	     -7.49999987	     -8.18498757	     17.91888708	     30.02446580	     37.50847398	      0.65464637	     -1.33523742	    -34.71026468	     -7.49999987	    -37.83819560	     -8.41172447	     -4.91034950	     49.47256723	     12.32727192	     64.50355963	    139.67056873	    107.25143417	     67.65545266	     14.94840546	     78.57719424	    128.94098955	     65.58141707
      9.01666670	     21.59270614	      8.65087859	     15.58289624	      0.04252468	      0.90795882	     -0.07756911	     13.22482561	    -19.37145817	      2.78842319	      2.05758949	      0.03591171	    -24.44951464	    -22.37455305	     -7.49999987	     -7.51608893	     18.30528121	     29.21295986	     39.87493330	      0.69594888	      2.03632819	    -34.70353839	     -7.49999987	    -38.00378613	     -8.64867383	     -4.90882195	     49.62168954	     12.40793849	     64.42855230	    139.74265005	    108.93323706	     67.88858299	     14.81031509	     78.46639511	    128.31586270	     65.36269405
      9.03333330	     21.78307656	      8.85173554	     15.78982112	      0.03984867	      0.90389566	     -0.07789288	     12.97493562	    -19.64073925	      2.69332595	      2.46122102	      0.04295641	    -24.33769816	    -22.13233601	     -7.49999987	     -7.74102311	     18.68430644	     29.42132783	     41.20242681	      0.71911801	      3.40690544	    -34.67432573	     -7.49999987	    -38.52220490	     -8.78507351	     -5.19576733	     49.83147493	     12.41786640	     63.90353776	    139.75239786	    106.59104945	     68.23450333	     14.90062912	     78.08266112	    127.84467252	     65.24187397
